<mxfile host="Electron" modified="2023-10-29T06:33:44.062Z" agent="Mozilla/5.0 (Windows NT 10.0; Win64; x64) AppleWebKit/537.36 (KHTML, like Gecko) draw.io/21.1.2 Chrome/106.0.5249.199 Electron/21.4.3 Safari/537.36" etag="q4rmdN9fE1R-u4Yu44DG" version="21.1.2" type="device" pages="3">
  <diagram name="classes" id="14choJfFOrwGaaYLM9vY">
    <mxGraphModel dx="1435" dy="707" grid="1" gridSize="10" guides="1" tooltips="1" connect="1" arrows="1" fold="1" page="1" pageScale="1" pageWidth="1169" pageHeight="827" math="0" shadow="0">
      <root>
        <mxCell id="0" />
        <mxCell id="1" parent="0" />
        <mxCell id="imdKk1AMcW1jBAyzuHo4-1" value="Logger" style="swimlane;fontStyle=1;align=center;verticalAlign=top;childLayout=stackLayout;horizontal=1;startSize=26;horizontalStack=0;resizeParent=1;resizeParentMax=0;resizeLast=0;collapsible=1;marginBottom=0;fillColor=#f5f5f5;fontColor=#333333;strokeColor=#666666;shadow=1;" parent="1" vertex="1">
          <mxGeometry x="290" y="310" width="170" height="112" as="geometry" />
        </mxCell>
        <mxCell id="imdKk1AMcW1jBAyzuHo4-2" value="+ parent: shared_ptr&lt;Logger&gt;" style="text;strokeColor=none;fillColor=none;align=left;verticalAlign=top;rounded=0;shadow=1;spacingLeft=4;spacingRight=4;" parent="imdKk1AMcW1jBAyzuHo4-1" vertex="1">
          <mxGeometry y="26" width="170" height="26" as="geometry" />
        </mxCell>
        <mxCell id="imdKk1AMcW1jBAyzuHo4-3" value="" style="line;strokeWidth=1;fillColor=none;align=left;verticalAlign=middle;spacingTop=-1;spacingLeft=3;spacingRight=3;rotatable=0;labelPosition=right;points=[];portConstraint=eastwest;strokeColor=inherit;" parent="imdKk1AMcW1jBAyzuHo4-1" vertex="1">
          <mxGeometry y="52" width="170" height="8" as="geometry" />
        </mxCell>
        <mxCell id="imdKk1AMcW1jBAyzuHo4-4" value="+ set_level(record)" style="text;strokeColor=none;fillColor=none;align=left;verticalAlign=top;rounded=0;shadow=1;spacingLeft=4;spacingRight=4;" parent="imdKk1AMcW1jBAyzuHo4-1" vertex="1">
          <mxGeometry y="60" width="170" height="26" as="geometry" />
        </mxCell>
        <mxCell id="imdKk1AMcW1jBAyzuHo4-12" value="+ handle(record)" style="text;strokeColor=none;fillColor=none;align=left;verticalAlign=top;rounded=0;shadow=1;spacingLeft=4;spacingRight=4;" parent="imdKk1AMcW1jBAyzuHo4-1" vertex="1">
          <mxGeometry y="86" width="170" height="26" as="geometry" />
        </mxCell>
        <mxCell id="imdKk1AMcW1jBAyzuHo4-8" value="Handler" style="swimlane;fontStyle=1;align=center;verticalAlign=top;childLayout=stackLayout;horizontal=1;startSize=26;horizontalStack=0;resizeParent=1;resizeParentMax=0;resizeLast=0;collapsible=1;marginBottom=0;fillColor=#f5f5f5;fontColor=#333333;strokeColor=#666666;shadow=1;" parent="1" vertex="1">
          <mxGeometry x="420" y="450" width="160" height="86" as="geometry" />
        </mxCell>
        <mxCell id="imdKk1AMcW1jBAyzuHo4-9" value="+ field: type" style="text;strokeColor=none;fillColor=none;align=left;verticalAlign=top;rounded=0;shadow=1;spacingLeft=4;spacingRight=4;" parent="imdKk1AMcW1jBAyzuHo4-8" vertex="1">
          <mxGeometry y="26" width="160" height="26" as="geometry" />
        </mxCell>
        <mxCell id="imdKk1AMcW1jBAyzuHo4-10" value="" style="line;strokeWidth=1;fillColor=none;align=left;verticalAlign=middle;spacingTop=-1;spacingLeft=3;spacingRight=3;rotatable=0;labelPosition=right;points=[];portConstraint=eastwest;strokeColor=inherit;" parent="imdKk1AMcW1jBAyzuHo4-8" vertex="1">
          <mxGeometry y="52" width="160" height="8" as="geometry" />
        </mxCell>
        <mxCell id="imdKk1AMcW1jBAyzuHo4-11" value="+ method(type): type" style="text;strokeColor=none;fillColor=none;align=left;verticalAlign=top;rounded=0;shadow=1;spacingLeft=4;spacingRight=4;" parent="imdKk1AMcW1jBAyzuHo4-8" vertex="1">
          <mxGeometry y="60" width="160" height="26" as="geometry" />
        </mxCell>
        <mxCell id="imdKk1AMcW1jBAyzuHo4-13" value="Formatter" style="swimlane;fontStyle=1;align=center;verticalAlign=top;childLayout=stackLayout;horizontal=1;startSize=26;horizontalStack=0;resizeParent=1;resizeParentMax=0;resizeLast=0;collapsible=1;marginBottom=0;fillColor=#f5f5f5;fontColor=#333333;strokeColor=#666666;shadow=1;" parent="1" vertex="1">
          <mxGeometry x="570" y="580" width="160" height="86" as="geometry" />
        </mxCell>
        <mxCell id="imdKk1AMcW1jBAyzuHo4-14" value="+ field: type" style="text;strokeColor=none;fillColor=none;align=left;verticalAlign=top;rounded=0;shadow=1;spacingLeft=4;spacingRight=4;" parent="imdKk1AMcW1jBAyzuHo4-13" vertex="1">
          <mxGeometry y="26" width="160" height="26" as="geometry" />
        </mxCell>
        <mxCell id="imdKk1AMcW1jBAyzuHo4-15" value="" style="line;strokeWidth=1;fillColor=none;align=left;verticalAlign=middle;spacingTop=-1;spacingLeft=3;spacingRight=3;rotatable=0;labelPosition=right;points=[];portConstraint=eastwest;strokeColor=inherit;" parent="imdKk1AMcW1jBAyzuHo4-13" vertex="1">
          <mxGeometry y="52" width="160" height="8" as="geometry" />
        </mxCell>
        <mxCell id="imdKk1AMcW1jBAyzuHo4-16" value="+ method(type): type" style="text;strokeColor=none;fillColor=none;align=left;verticalAlign=top;rounded=0;shadow=1;spacingLeft=4;spacingRight=4;" parent="imdKk1AMcW1jBAyzuHo4-13" vertex="1">
          <mxGeometry y="60" width="160" height="26" as="geometry" />
        </mxCell>
        <mxCell id="imdKk1AMcW1jBAyzuHo4-17" value="1" style="endArrow=open;html=1;endSize=12;startArrow=diamondThin;startSize=14;startFill=1;edgeStyle=orthogonalEdgeStyle;align=left;verticalAlign=bottom;rounded=0;" parent="1" source="imdKk1AMcW1jBAyzuHo4-1" target="imdKk1AMcW1jBAyzuHo4-8" edge="1">
          <mxGeometry x="-0.7764" y="10" relative="1" as="geometry">
            <mxPoint x="600" y="540" as="sourcePoint" />
            <mxPoint x="760" y="540" as="targetPoint" />
            <Array as="points">
              <mxPoint x="360" y="493" />
            </Array>
            <mxPoint as="offset" />
          </mxGeometry>
        </mxCell>
        <mxCell id="imdKk1AMcW1jBAyzuHo4-18" value="*" style="edgeLabel;html=1;align=right;verticalAlign=bottom;resizable=0;points=[];" parent="imdKk1AMcW1jBAyzuHo4-17" vertex="1" connectable="0">
          <mxGeometry x="0.7758" y="1" relative="1" as="geometry">
            <mxPoint x="8" y="-3" as="offset" />
          </mxGeometry>
        </mxCell>
        <mxCell id="imdKk1AMcW1jBAyzuHo4-19" value="1" style="endArrow=open;html=1;endSize=12;startArrow=diamondThin;startSize=14;startFill=1;edgeStyle=orthogonalEdgeStyle;align=left;verticalAlign=bottom;rounded=0;" parent="1" source="imdKk1AMcW1jBAyzuHo4-8" target="imdKk1AMcW1jBAyzuHo4-13" edge="1">
          <mxGeometry x="-0.7764" y="10" relative="1" as="geometry">
            <mxPoint x="600" y="540" as="sourcePoint" />
            <mxPoint x="760" y="540" as="targetPoint" />
            <Array as="points">
              <mxPoint x="530" y="590" />
            </Array>
            <mxPoint as="offset" />
          </mxGeometry>
        </mxCell>
        <mxCell id="imdKk1AMcW1jBAyzuHo4-20" value="*" style="edgeLabel;html=1;align=right;verticalAlign=bottom;resizable=0;points=[];" parent="imdKk1AMcW1jBAyzuHo4-19" vertex="1" connectable="0">
          <mxGeometry x="0.7758" y="1" relative="1" as="geometry">
            <mxPoint x="8" y="-3" as="offset" />
          </mxGeometry>
        </mxCell>
        <mxCell id="nTIpUTJY5TtXzYPEC3VH-1" value="Logger" style="html=1;fillColor=#f5f5f5;strokeColor=#666666;fontStyle=1;shadow=1;fontColor=#333333;" vertex="1" parent="1">
          <mxGeometry x="190" y="240" width="110" height="30" as="geometry" />
        </mxCell>
        <mxCell id="nTIpUTJY5TtXzYPEC3VH-2" value="*" style="endArrow=open;html=1;endSize=12;startArrow=diamondThin;startSize=14;startFill=0;edgeStyle=orthogonalEdgeStyle;align=right;verticalAlign=bottom;rounded=0;" edge="1" parent="1" source="imdKk1AMcW1jBAyzuHo4-1" target="nTIpUTJY5TtXzYPEC3VH-1">
          <mxGeometry x="-0.883" y="-6" relative="1" as="geometry">
            <mxPoint x="440" y="330" as="sourcePoint" />
            <mxPoint x="600" y="330" as="targetPoint" />
            <Array as="points">
              <mxPoint x="245" y="366" />
            </Array>
            <mxPoint as="offset" />
          </mxGeometry>
        </mxCell>
        <mxCell id="nTIpUTJY5TtXzYPEC3VH-3" value="1&lt;br&gt;parent" style="edgeLabel;html=1;align=left;verticalAlign=top;resizable=0;points=[];" vertex="1" connectable="0" parent="nTIpUTJY5TtXzYPEC3VH-2">
          <mxGeometry x="0.8001" y="1" relative="1" as="geometry">
            <mxPoint x="1" y="-7" as="offset" />
          </mxGeometry>
        </mxCell>
        <mxCell id="nTIpUTJY5TtXzYPEC3VH-5" value="LoggerRepository" style="swimlane;fontStyle=1;align=center;verticalAlign=top;childLayout=stackLayout;horizontal=1;startSize=26;horizontalStack=0;resizeParent=1;resizeParentMax=0;resizeLast=0;collapsible=1;marginBottom=0;fillColor=#f5f5f5;fontColor=#333333;strokeColor=#666666;shadow=1;" vertex="1" parent="1">
          <mxGeometry x="40" y="80" width="160" height="86" as="geometry" />
        </mxCell>
        <mxCell id="nTIpUTJY5TtXzYPEC3VH-6" value="+ field: type" style="text;strokeColor=none;fillColor=none;align=left;verticalAlign=top;rounded=0;shadow=1;spacingLeft=4;spacingRight=4;" vertex="1" parent="nTIpUTJY5TtXzYPEC3VH-5">
          <mxGeometry y="26" width="160" height="26" as="geometry" />
        </mxCell>
        <mxCell id="nTIpUTJY5TtXzYPEC3VH-7" value="" style="line;strokeWidth=1;fillColor=none;align=left;verticalAlign=middle;spacingTop=-1;spacingLeft=3;spacingRight=3;rotatable=0;labelPosition=right;points=[];portConstraint=eastwest;strokeColor=inherit;" vertex="1" parent="nTIpUTJY5TtXzYPEC3VH-5">
          <mxGeometry y="52" width="160" height="8" as="geometry" />
        </mxCell>
        <mxCell id="nTIpUTJY5TtXzYPEC3VH-8" value="+ method(type): type" style="text;strokeColor=none;fillColor=none;align=left;verticalAlign=top;rounded=0;shadow=1;spacingLeft=4;spacingRight=4;" vertex="1" parent="nTIpUTJY5TtXzYPEC3VH-5">
          <mxGeometry y="60" width="160" height="26" as="geometry" />
        </mxCell>
        <mxCell id="nTIpUTJY5TtXzYPEC3VH-9" value="" style="endArrow=open;html=1;endSize=12;startArrow=diamondThin;startSize=14;startFill=0;edgeStyle=orthogonalEdgeStyle;align=right;verticalAlign=bottom;rounded=0;" edge="1" parent="1" source="nTIpUTJY5TtXzYPEC3VH-5" target="imdKk1AMcW1jBAyzuHo4-1">
          <mxGeometry x="-0.883" y="-6" relative="1" as="geometry">
            <mxPoint x="440" y="330" as="sourcePoint" />
            <mxPoint x="600" y="330" as="targetPoint" />
            <Array as="points">
              <mxPoint x="120" y="380" />
            </Array>
            <mxPoint as="offset" />
          </mxGeometry>
        </mxCell>
        <mxCell id="nTIpUTJY5TtXzYPEC3VH-11" value="" style="endArrow=open;html=1;endSize=12;startArrow=diamondThin;startSize=14;startFill=0;edgeStyle=orthogonalEdgeStyle;align=right;verticalAlign=bottom;rounded=0;" edge="1" parent="1" source="nTIpUTJY5TtXzYPEC3VH-5" target="nTIpUTJY5TtXzYPEC3VH-1">
          <mxGeometry x="-0.883" y="-6" relative="1" as="geometry">
            <mxPoint x="440" y="330" as="sourcePoint" />
            <mxPoint x="600" y="330" as="targetPoint" />
            <Array as="points">
              <mxPoint x="120" y="255" />
            </Array>
            <mxPoint as="offset" />
          </mxGeometry>
        </mxCell>
      </root>
    </mxGraphModel>
  </diagram>
  <diagram id="7Th6jqZASmzJYiBu2Spx" name="ページ2">
    <mxGraphModel dx="2512" dy="1238" grid="1" gridSize="10" guides="1" tooltips="1" connect="1" arrows="1" fold="1" page="1" pageScale="1" pageWidth="1169" pageHeight="827" math="0" shadow="0">
      <root>
        <mxCell id="0" />
        <mxCell id="1" parent="0" />
        <mxCell id="55aXoHsHzU9adbEmKJWv-4" value="Handler" style="shape=umlLifeline;perimeter=lifelinePerimeter;whiteSpace=wrap;html=1;container=1;dropTarget=0;collapsible=0;recursiveResize=0;outlineConnect=0;portConstraint=eastwest;newEdgeStyle={&quot;edgeStyle&quot;:&quot;elbowEdgeStyle&quot;,&quot;elbow&quot;:&quot;vertical&quot;,&quot;curved&quot;:0,&quot;rounded&quot;:0};" parent="1" vertex="1">
          <mxGeometry x="350" y="110" width="100" height="490" as="geometry" />
        </mxCell>
        <mxCell id="55aXoHsHzU9adbEmKJWv-6" value="" style="html=1;points=[];perimeter=orthogonalPerimeter;outlineConnect=0;targetShapes=umlLifeline;portConstraint=eastwest;newEdgeStyle={&quot;edgeStyle&quot;:&quot;elbowEdgeStyle&quot;,&quot;elbow&quot;:&quot;vertical&quot;,&quot;curved&quot;:0,&quot;rounded&quot;:0};" parent="55aXoHsHzU9adbEmKJWv-4" vertex="1">
          <mxGeometry x="45" y="120" width="10" height="80" as="geometry" />
        </mxCell>
        <mxCell id="55aXoHsHzU9adbEmKJWv-7" value="dispatch" style="html=1;verticalAlign=bottom;startArrow=oval;endArrow=block;startSize=8;edgeStyle=elbowEdgeStyle;elbow=vertical;curved=0;rounded=0;" parent="55aXoHsHzU9adbEmKJWv-4" target="55aXoHsHzU9adbEmKJWv-6" edge="1">
          <mxGeometry relative="1" as="geometry">
            <mxPoint x="190" y="120" as="sourcePoint" />
          </mxGeometry>
        </mxCell>
        <mxCell id="55aXoHsHzU9adbEmKJWv-8" value="handle()" style="text;html=1;align=center;verticalAlign=middle;resizable=0;points=[];autosize=1;strokeColor=none;fillColor=none;" parent="1" vertex="1">
          <mxGeometry x="330" y="220" width="70" height="30" as="geometry" />
        </mxCell>
        <mxCell id="55aXoHsHzU9adbEmKJWv-9" value="ThreadB" style="shape=umlLifeline;perimeter=lifelinePerimeter;whiteSpace=wrap;html=1;container=1;dropTarget=0;collapsible=0;recursiveResize=0;outlineConnect=0;portConstraint=eastwest;newEdgeStyle={&quot;edgeStyle&quot;:&quot;elbowEdgeStyle&quot;,&quot;elbow&quot;:&quot;vertical&quot;,&quot;curved&quot;:0,&quot;rounded&quot;:0};participant=umlControl;size=60;" parent="1" vertex="1">
          <mxGeometry x="510" y="100" width="60" height="490" as="geometry" />
        </mxCell>
        <mxCell id="55aXoHsHzU9adbEmKJWv-10" value="ThreadA" style="shape=umlLifeline;perimeter=lifelinePerimeter;whiteSpace=wrap;html=1;container=1;dropTarget=0;collapsible=0;recursiveResize=0;outlineConnect=0;portConstraint=eastwest;newEdgeStyle={&quot;edgeStyle&quot;:&quot;elbowEdgeStyle&quot;,&quot;elbow&quot;:&quot;vertical&quot;,&quot;curved&quot;:0,&quot;rounded&quot;:0};participant=umlControl;size=60;" parent="1" vertex="1">
          <mxGeometry x="170" y="100" width="60" height="500" as="geometry" />
        </mxCell>
        <mxCell id="55aXoHsHzU9adbEmKJWv-12" value="IO&lt;br&gt;resource" style="shape=umlLifeline;perimeter=lifelinePerimeter;whiteSpace=wrap;html=1;container=1;dropTarget=0;collapsible=0;recursiveResize=0;outlineConnect=0;portConstraint=eastwest;newEdgeStyle={&quot;edgeStyle&quot;:&quot;elbowEdgeStyle&quot;,&quot;elbow&quot;:&quot;vertical&quot;,&quot;curved&quot;:0,&quot;rounded&quot;:0};participant=umlEntity;size=50;" parent="1" vertex="1">
          <mxGeometry x="290" y="160" width="50" height="440" as="geometry" />
        </mxCell>
        <mxCell id="55aXoHsHzU9adbEmKJWv-14" value="" style="html=1;points=[];perimeter=orthogonalPerimeter;outlineConnect=0;targetShapes=umlLifeline;portConstraint=eastwest;newEdgeStyle={&quot;edgeStyle&quot;:&quot;elbowEdgeStyle&quot;,&quot;elbow&quot;:&quot;vertical&quot;,&quot;curved&quot;:0,&quot;rounded&quot;:0};" parent="55aXoHsHzU9adbEmKJWv-12" vertex="1">
          <mxGeometry x="20" y="100" width="10" height="50" as="geometry" />
        </mxCell>
        <mxCell id="55aXoHsHzU9adbEmKJWv-16" value="" style="html=1;verticalAlign=bottom;endArrow=open;dashed=1;endSize=8;edgeStyle=elbowEdgeStyle;elbow=vertical;curved=0;rounded=0;" parent="1" source="55aXoHsHzU9adbEmKJWv-14" target="55aXoHsHzU9adbEmKJWv-6" edge="1">
          <mxGeometry relative="1" as="geometry">
            <mxPoint x="390" y="325" as="targetPoint" />
            <Array as="points">
              <mxPoint x="360" y="310" />
            </Array>
          </mxGeometry>
        </mxCell>
        <mxCell id="55aXoHsHzU9adbEmKJWv-15" value="use" style="html=1;verticalAlign=bottom;endArrow=block;edgeStyle=elbowEdgeStyle;elbow=vertical;curved=0;rounded=0;" parent="1" source="55aXoHsHzU9adbEmKJWv-6" target="55aXoHsHzU9adbEmKJWv-14" edge="1">
          <mxGeometry x="-0.0667" relative="1" as="geometry">
            <mxPoint x="390" y="250" as="sourcePoint" />
            <Array as="points">
              <mxPoint x="360" y="260" />
              <mxPoint x="320" y="250" />
            </Array>
            <mxPoint as="offset" />
          </mxGeometry>
        </mxCell>
      </root>
    </mxGraphModel>
  </diagram>
  <diagram id="Tl8tjMvvaRtwB5saLYio" name="ページ3">
    <mxGraphModel dx="2512" dy="1238" grid="1" gridSize="10" guides="1" tooltips="1" connect="1" arrows="1" fold="1" page="1" pageScale="1" pageWidth="1169" pageHeight="827" math="0" shadow="0">
      <root>
        <mxCell id="0" />
        <mxCell id="1" parent="0" />
        <mxCell id="D2DDxU_Djzlconhghcmz-2" value="" style="html=1;fillColor=#dae8fc;strokeColor=#6c8ebf;fontStyle=1;shadow=1;" vertex="1" parent="1">
          <mxGeometry x="70" y="130" width="100" height="30" as="geometry" />
        </mxCell>
        <mxCell id="D2DDxU_Djzlconhghcmz-3" value="." style="html=1;fillColor=#dae8fc;strokeColor=#6c8ebf;fontStyle=1;shadow=1;" vertex="1" parent="1">
          <mxGeometry x="130" y="180" width="100" height="30" as="geometry" />
        </mxCell>
        <mxCell id="D2DDxU_Djzlconhghcmz-4" value="a" style="html=1;fillColor=#dae8fc;strokeColor=#6c8ebf;fontStyle=1;shadow=1;" vertex="1" parent="1">
          <mxGeometry x="130" y="284" width="100" height="30" as="geometry" />
        </mxCell>
        <mxCell id="D2DDxU_Djzlconhghcmz-5" value="a." style="html=1;fillColor=#dae8fc;strokeColor=#6c8ebf;fontStyle=1;shadow=1;" vertex="1" parent="1">
          <mxGeometry x="170" y="334" width="100" height="30" as="geometry" />
        </mxCell>
        <mxCell id="D2DDxU_Djzlconhghcmz-6" value="a.b" style="html=1;fillColor=#dae8fc;strokeColor=#6c8ebf;fontStyle=1;shadow=1;" vertex="1" parent="1">
          <mxGeometry x="170" y="384" width="100" height="30" as="geometry" />
        </mxCell>
        <mxCell id="D2DDxU_Djzlconhghcmz-7" value=".." style="html=1;fillColor=#dae8fc;strokeColor=#6c8ebf;fontStyle=1;shadow=1;" vertex="1" parent="1">
          <mxGeometry x="170" y="230" width="100" height="30" as="geometry" />
        </mxCell>
      </root>
    </mxGraphModel>
  </diagram>
</mxfile>
